<svg xmlns="http://www.w3.org/2000/svg" xmlns:xlink="http://www.w3.org/1999/xlink" width="800" zoomAndPan="magnify" viewBox="0 0 600 599.999999" height="800" preserveAspectRatio="xMidYMid meet" version="1.0"><defs><clipPath id="922292864b"><path d="M 0.359375 0.480469 L 98 0.480469 L 98 137.761719 L 0.359375 137.761719 Z M 0.359375 0.480469 " clip-rule="nonzero"/></clipPath><clipPath id="4ba83744a4"><rect x="0" width="494" y="0" height="138"/></clipPath></defs><g transform="matrix(1, 0, 0, 1, 51, 228)"><g clip-path="url(#4ba83744a4)"><path fill="#03a678" d="M 106.453125 41.71875 L 99.671875 41.71875 L 99.671875 23.496094 L 130.605469 23.496094 L 130.605469 41.71875 L 123.824219 41.71875 L 123.824219 81.292969 L 106.453125 81.292969 Z M 106.453125 41.71875 " fill-opacity="1" fill-rule="nonzero"/><path fill="#03a678" d="M 176.285156 59.089844 C 176.285156 72.902344 166.199219 83.160156 152.894531 83.160156 C 139.589844 83.160156 129.503906 72.902344 129.503906 59.089844 C 129.503906 45.277344 139.589844 35.023438 152.894531 35.023438 C 166.199219 35.023438 176.285156 45.277344 176.285156 59.089844 Z M 146.367188 59.089844 C 146.367188 63.835938 149.25 67.054688 152.894531 67.054688 C 156.539062 67.054688 159.417969 63.835938 159.417969 59.089844 C 159.417969 54.34375 156.539062 51.207031 152.894531 51.207031 C 149.25 51.207031 146.367188 54.515625 146.367188 59.089844 Z M 146.367188 59.089844 " fill-opacity="1" fill-rule="nonzero"/><path fill="#03a678" d="M 195.265625 81.292969 L 179.164062 81.292969 L 179.164062 36.886719 L 194.417969 36.886719 L 194.417969 46.886719 C 195.351562 43.75 199.671875 36.125 205.773438 36.125 L 207.046875 36.125 L 207.046875 55.277344 C 206.453125 55.023438 205.265625 54.851562 204.25 54.851562 C 198.742188 54.851562 195.183594 58.15625 195.183594 60.53125 L 195.183594 81.292969 Z M 195.265625 81.292969 " fill-opacity="1" fill-rule="nonzero"/><path fill="#03a678" d="M 241.367188 81.125 C 239.417969 82.226562 236.03125 82.480469 232.894531 82.480469 C 219.25 82.480469 208.910156 74.175781 208.910156 59.003906 C 208.910156 43.835938 219.25 35.53125 232.894531 35.53125 C 246.539062 35.53125 239.417969 35.871094 241.367188 36.886719 L 241.367188 53.496094 L 240.945312 53.496094 C 239.929688 52.054688 237.300781 51.039062 233.910156 51.039062 C 230.519531 51.039062 225.691406 54.34375 225.691406 58.921875 C 225.691406 63.496094 229.335938 66.800781 233.910156 66.800781 C 238.488281 66.800781 239.929688 65.785156 240.945312 64.34375 L 241.367188 64.34375 Z M 241.367188 81.125 " fill-opacity="1" fill-rule="nonzero"/><path fill="#03a678" d="M 261.113281 81.292969 L 245.011719 81.292969 L 245.011719 20.953125 L 260.265625 20.953125 L 260.265625 45.105469 C 261.453125 42.308594 265.519531 36.207031 272.808594 36.207031 C 280.097656 36.207031 286.367188 42.394531 286.367188 52.480469 L 286.367188 81.378906 L 270.265625 81.378906 L 270.265625 58.328125 C 270.265625 54.429688 268.65625 52.648438 265.777344 52.648438 C 262.894531 52.648438 260.945312 54.851562 260.945312 57.566406 L 260.945312 81.378906 Z M 261.113281 81.292969 " fill-opacity="1" fill-rule="nonzero"/><path fill="#03a678" d="M 320.351562 61.207031 L 314.757812 81.292969 L 300.777344 81.292969 L 287.386719 36.886719 L 303.488281 36.886719 L 308.234375 58.242188 L 314.417969 36.886719 L 325.777344 36.886719 L 332.132812 58.242188 L 336.707031 36.886719 L 352.640625 36.886719 L 339.335938 81.292969 L 326.03125 81.292969 L 320.4375 61.207031 Z M 320.351562 61.207031 " fill-opacity="1" fill-rule="nonzero"/><path fill="#03a678" d="M 397.21875 59.089844 C 397.21875 72.902344 387.132812 83.160156 373.828125 83.160156 C 360.523438 83.160156 350.4375 72.902344 350.4375 59.089844 C 350.4375 45.277344 360.523438 35.023438 373.828125 35.023438 C 387.132812 35.023438 397.21875 45.277344 397.21875 59.089844 Z M 367.300781 59.089844 C 367.300781 63.835938 370.183594 67.054688 373.828125 67.054688 C 377.472656 67.054688 380.351562 63.835938 380.351562 59.089844 C 380.351562 54.34375 377.472656 51.207031 373.828125 51.207031 C 370.183594 51.207031 367.300781 54.515625 367.300781 59.089844 Z M 367.300781 59.089844 " fill-opacity="1" fill-rule="nonzero"/><path fill="#03a678" d="M 445.777344 59.089844 C 445.777344 72.902344 435.691406 83.160156 422.386719 83.160156 C 409.082031 83.160156 398.996094 72.902344 398.996094 59.089844 C 398.996094 45.277344 409.082031 35.023438 422.386719 35.023438 C 435.691406 35.023438 445.777344 45.277344 445.777344 59.089844 Z M 415.859375 59.089844 C 415.859375 63.835938 418.742188 67.054688 422.386719 67.054688 C 426.03125 67.054688 428.910156 63.835938 428.910156 59.089844 C 428.910156 54.34375 426.03125 51.207031 422.386719 51.207031 C 418.742188 51.207031 415.859375 54.515625 415.859375 59.089844 Z M 415.859375 59.089844 " fill-opacity="1" fill-rule="nonzero"/><path fill="#03a678" d="M 477.472656 73.667969 C 474.84375 79.34375 470.351562 82.734375 464.335938 82.734375 C 454.929688 82.734375 447.640625 73.328125 447.640625 59.429688 C 447.640625 45.53125 454.929688 35.363281 464.335938 35.363281 C 473.742188 35.363281 473.742188 38.414062 476.371094 43.328125 L 476.371094 20.871094 L 492.472656 20.871094 L 492.472656 81.210938 L 477.472656 81.210938 L 477.472656 73.582031 Z M 470.605469 51.292969 C 467.300781 51.292969 464.421875 54.429688 464.421875 59.089844 C 464.421875 63.75 467.21875 66.886719 470.605469 66.886719 C 473.996094 66.886719 476.964844 63.496094 476.964844 59.089844 C 476.964844 54.683594 473.996094 51.292969 470.605469 51.292969 Z M 470.605469 51.292969 " fill-opacity="1" fill-rule="nonzero"/><path fill="#03a678" d="M 200.691406 97.140625 C 199.164062 95.953125 197.132812 95.53125 195.097656 95.53125 C 191.027344 95.53125 187.894531 98.75 187.894531 102.988281 C 187.894531 107.226562 191.027344 110.617188 195.097656 110.617188 C 199.164062 110.617188 199.164062 110.191406 200.691406 109.003906 L 200.691406 121.292969 C 198.742188 122.3125 196.621094 122.566406 194.335938 122.566406 C 183.742188 122.566406 176.621094 113.75 176.621094 102.988281 C 176.621094 92.226562 183.824219 83.496094 194.335938 83.496094 C 204.84375 83.496094 198.824219 83.835938 200.691406 84.851562 Z M 200.691406 97.140625 " fill-opacity="1" fill-rule="nonzero"/><path fill="#03a678" d="M 233.148438 107.394531 C 233.148438 116.378906 226.621094 122.988281 217.980469 122.988281 C 209.335938 122.988281 202.808594 116.378906 202.808594 107.394531 C 202.808594 98.414062 209.335938 91.800781 217.980469 91.800781 C 226.621094 91.800781 233.148438 98.414062 233.148438 107.394531 Z M 213.65625 107.394531 C 213.65625 110.445312 215.519531 112.566406 217.894531 112.566406 C 220.265625 112.566406 222.132812 110.445312 222.132812 107.394531 C 222.132812 104.34375 220.265625 102.3125 217.894531 102.3125 C 215.519531 102.3125 213.65625 104.429688 213.65625 107.394531 Z M 213.65625 107.394531 " fill-opacity="1" fill-rule="nonzero"/><path fill="#03a678" d="M 245.4375 121.800781 L 235.011719 121.800781 L 235.011719 92.988281 L 244.929688 92.988281 L 244.929688 97.394531 C 246.113281 95.445312 248.742188 92.394531 253.0625 92.394531 C 257.386719 92.394531 261.878906 96.378906 261.878906 102.902344 L 261.878906 121.71875 L 251.453125 121.71875 L 251.453125 106.632812 C 251.453125 104.089844 250.4375 102.988281 248.570312 102.988281 C 246.707031 102.988281 245.4375 104.429688 245.4375 106.125 Z M 245.4375 121.800781 " fill-opacity="1" fill-rule="nonzero"/><path fill="#03a678" d="M 280.945312 92.902344 L 280.945312 102.226562 C 278.488281 101.210938 276.285156 100.953125 275.605469 100.953125 C 274.929688 100.953125 274.671875 101.125 274.671875 101.464844 C 274.671875 101.800781 275.183594 102.394531 276.285156 103.414062 C 282.046875 108.242188 283.316406 110.617188 283.316406 113.75 C 283.316406 118.496094 279.757812 122.820312 272.46875 122.820312 C 265.183594 122.820312 266.621094 122.226562 264.671875 121.464844 L 264.671875 112.226562 C 267.214844 113.414062 269.589844 113.835938 271.03125 113.835938 C 272.46875 113.835938 271.960938 113.667969 271.960938 113.414062 C 271.960938 112.902344 271.367188 112.226562 269.84375 110.785156 C 264.417969 106.378906 263.65625 104.089844 263.65625 101.125 C 263.65625 96.210938 266.621094 91.972656 274.503906 92.054688 C 277.132812 92.054688 279.164062 92.3125 280.945312 92.902344 Z M 280.945312 92.902344 " fill-opacity="1" fill-rule="nonzero"/><path fill="#03a678" d="M 302.046875 117.394531 C 300.859375 119.34375 298.234375 122.394531 293.910156 122.394531 C 289.589844 122.394531 285.097656 118.414062 285.097656 111.886719 L 285.097656 93.074219 L 295.519531 93.074219 L 295.519531 108.160156 C 295.519531 110.699219 296.539062 111.800781 298.402344 111.800781 C 300.265625 111.800781 301.539062 110.363281 301.539062 108.667969 L 301.539062 93.074219 L 311.960938 93.074219 L 311.960938 121.886719 L 302.046875 121.886719 Z M 302.046875 117.394531 " fill-opacity="1" fill-rule="nonzero"/><path fill="#03a678" d="M 314.589844 82.648438 L 325.011719 82.648438 L 325.011719 121.800781 L 314.589844 121.800781 Z M 314.589844 82.648438 " fill-opacity="1" fill-rule="nonzero"/><path fill="#03a678" d="M 339.929688 103.074219 L 339.929688 121.800781 L 329.503906 121.800781 L 329.503906 103.074219 L 327.132812 103.074219 L 327.132812 92.988281 L 329.503906 92.988281 L 329.503906 86.039062 L 339.929688 84.515625 L 339.929688 92.988281 L 342.300781 92.988281 L 342.300781 103.074219 Z M 339.929688 103.074219 " fill-opacity="1" fill-rule="nonzero"/><path fill="#03a678" d="M 354.757812 90.363281 L 344.335938 90.363281 L 344.335938 82.648438 L 354.757812 82.648438 Z M 354.757812 121.800781 L 344.335938 121.800781 L 344.335938 92.988281 L 354.757812 92.988281 Z M 354.757812 121.800781 " fill-opacity="1" fill-rule="nonzero"/><path fill="#03a678" d="M 367.894531 121.800781 L 357.472656 121.800781 L 357.472656 92.988281 L 367.386719 92.988281 L 367.386719 97.394531 C 368.574219 95.445312 371.199219 92.394531 375.523438 92.394531 C 379.84375 92.394531 384.335938 96.378906 384.335938 102.902344 L 384.335938 121.71875 L 373.910156 121.71875 L 373.910156 106.632812 C 373.910156 104.089844 372.894531 102.988281 371.03125 102.988281 C 369.164062 102.988281 367.894531 104.429688 367.894531 106.125 Z M 367.894531 121.800781 " fill-opacity="1" fill-rule="nonzero"/><path fill="#03a678" d="M 398.320312 133.75 C 395.523438 133.75 392.980469 133.414062 390.605469 132.902344 L 390.605469 122.566406 C 393.0625 123.242188 395.183594 123.582031 397.980469 123.582031 C 402.21875 123.582031 404.082031 122.226562 404.082031 118.242188 L 404.082031 116.546875 C 402.386719 118.667969 400.011719 120.023438 397.300781 120.023438 C 391.539062 120.023438 386.199219 114.261719 386.199219 105.953125 C 386.199219 97.648438 391.539062 91.972656 397.300781 91.972656 C 403.0625 91.972656 403.0625 93.921875 404.757812 96.464844 L 404.757812 92.902344 L 414.503906 92.902344 L 414.503906 117.734375 C 414.503906 128.160156 410.523438 133.582031 398.320312 133.582031 Z M 404.167969 106.292969 C 404.167969 104.175781 402.554688 102.3125 400.605469 102.3125 C 398.65625 102.3125 397.046875 104.089844 397.046875 106.292969 C 397.046875 108.496094 398.65625 110.191406 400.605469 110.191406 C 402.554688 110.191406 404.167969 108.414062 404.167969 106.292969 Z M 404.167969 106.292969 " fill-opacity="1" fill-rule="nonzero"/><g clip-path="url(#922292864b)"><path fill="#03a678" d="M 44.5 110.242188 C 45.011719 117.628906 44.554688 124.554688 41.597656 131.175781 C 40.070312 134.589844 37.472656 137.238281 33.703125 137.1875 C 30.953125 137.1875 28 136.21875 25.503906 134.945312 C 10.019531 127.203125 -1.542969 108.460938 0.800781 89.15625 C 2.226562 77.496094 6.964844 67.207031 14.453125 58.34375 C 20.714844 50.90625 27.59375 44.03125 34.214844 36.953125 C 38.441406 32.417969 42.414062 27.835938 44.605469 21.925781 C 47.097656 15.355469 47.152344 8.886719 44.554688 2.367188 C 44.449219 2.0625 44.347656 1.757812 44.195312 0.992188 C 45.824219 2.164062 47.152344 3.03125 48.371094 3.949219 C 56.265625 10.007812 61.105469 18.003906 62.582031 27.886719 C 63.195312 31.859375 63.398438 35.933594 63.753906 40.007812 C 64.109375 44.03125 63.957031 48.207031 65.792969 51.976562 C 66.453125 53.351562 67.269531 54.625 68.183594 55.746094 C 69.867188 57.734375 71.851562 57.679688 73.023438 55.390625 C 74.195312 53.199219 74.859375 50.804688 75.621094 48.410156 C 76.132812 46.832031 76.4375 45.203125 77.046875 43.574219 C 79.695312 52.230469 85.246094 59.210938 89.78125 66.695312 C 96.453125 77.648438 99.558594 89.515625 97.167969 102.144531 C 94.058594 118.445312 84.535156 130.210938 68.949219 136.472656 C 63.601562 138.613281 58.457031 136.574219 55.960938 129.699219 C 53.71875 123.539062 53.210938 117.171875 53.773438 110.292969 C 62.378906 114.113281 70.988281 116.457031 80.613281 113.402344 C 73.839844 109.328125 68.183594 104.589844 63.550781 98.070312 C 68.238281 99.191406 72.566406 99.804688 77.40625 98.425781 C 70.121094 93.84375 64.722656 87.988281 60.238281 80.550781 C 64.210938 82.027344 67.828125 82.585938 71.699219 81.722656 C 65.433594 76.578125 60.035156 70.875 56.316406 63.386719 C 58.863281 63.742188 61.15625 64.097656 63.90625 64.507812 C 55.859375 58.039062 52.449219 49.480469 49.085938 40.160156 C 46.234375 49.53125 42.464844 57.835938 35.539062 64.507812 C 37.726562 63.945312 39.917969 63.4375 42.414062 62.773438 C 38.542969 70.464844 33.042969 76.324219 26.523438 81.722656 C 30.394531 82.691406 34.011719 81.925781 38.085938 80.703125 C 33.5 87.988281 28.152344 93.691406 21.023438 98.324219 C 25.65625 100.007812 29.933594 98.988281 34.570312 98.273438 C 29.882812 104.589844 24.332031 109.378906 17.507812 113.453125 C 27.132812 116.40625 35.742188 114.011719 44.449219 110.347656 Z M 44.5 110.242188 " fill-opacity="1" fill-rule="nonzero"/></g></g></g></svg>