<svg xmlns="http://www.w3.org/2000/svg" xmlns:xlink="http://www.w3.org/1999/xlink" width="800" zoomAndPan="magnify" viewBox="0 0 600 599.999999" height="800" preserveAspectRatio="xMidYMid meet" version="1.0"><defs><clipPath id="26991c2daa"><path d="M 0.144531 0.792969 L 24.910156 0.792969 L 24.910156 22.433594 L 0.144531 22.433594 Z M 0.144531 0.792969 " clip-rule="nonzero"/></clipPath><clipPath id="2f09695669"><path d="M 12.511719 0.792969 L 24.875 22.433594 L 0.144531 22.433594 Z M 12.511719 0.792969 " clip-rule="nonzero"/></clipPath><clipPath id="69eba553c6"><path d="M 0.144531 0.792969 L 24.910156 0.792969 L 24.910156 22.433594 L 0.144531 22.433594 Z M 0.144531 0.792969 " clip-rule="nonzero"/></clipPath><clipPath id="12e6f01e5f"><path d="M 12.511719 0.792969 L 24.875 22.433594 L 0.144531 22.433594 Z M 12.511719 0.792969 " clip-rule="nonzero"/></clipPath><clipPath id="bc6667f952"><rect x="0" width="25" y="0" height="23"/></clipPath><clipPath id="2970306bc2"><path d="M 36.058594 0.792969 L 60.824219 0.792969 L 60.824219 22.433594 L 36.058594 22.433594 Z M 36.058594 0.792969 " clip-rule="nonzero"/></clipPath><clipPath id="9324798f1b"><path d="M 48.421875 0.792969 L 60.789062 22.433594 L 36.058594 22.433594 Z M 48.421875 0.792969 " clip-rule="nonzero"/></clipPath><clipPath id="8280439777"><path d="M 0.0585938 0.792969 L 24.824219 0.792969 L 24.824219 22.433594 L 0.0585938 22.433594 Z M 0.0585938 0.792969 " clip-rule="nonzero"/></clipPath><clipPath id="959adc950f"><path d="M 12.421875 0.792969 L 24.789062 22.433594 L 0.0585938 22.433594 Z M 12.421875 0.792969 " clip-rule="nonzero"/></clipPath><clipPath id="e1bc076b24"><rect x="0" width="25" y="0" height="23"/></clipPath><clipPath id="8ce19f9bd8"><rect x="0" width="61" y="0" height="23"/></clipPath><clipPath id="c5bb2062e2"><path d="M 0.519531 0.0390625 L 62 0.0390625 L 62 86 L 0.519531 86 Z M 0.519531 0.0390625 " clip-rule="nonzero"/></clipPath><clipPath id="0decf94713"><path d="M 98 26 L 154 26 L 154 82.746094 L 98 82.746094 Z M 98 26 " clip-rule="nonzero"/></clipPath><clipPath id="3ff0dadf4a"><path d="M 355 26 L 410 26 L 410 82.746094 L 355 82.746094 Z M 355 26 " clip-rule="nonzero"/></clipPath><clipPath id="20a828728f"><path d="M 411 26 L 467 26 L 467 82.746094 L 411 82.746094 Z M 411 26 " clip-rule="nonzero"/></clipPath><clipPath id="7841f775fe"><path d="M 153 82 L 182 82 L 182 82.746094 L 153 82.746094 Z M 153 82 " clip-rule="nonzero"/></clipPath><clipPath id="f43cab4692"><path d="M 313 81 L 326 81 L 326 82.746094 L 313 82.746094 Z M 313 81 " clip-rule="nonzero"/></clipPath><clipPath id="db39ca22be"><path d="M 348 81 L 361 81 L 361 82.746094 L 348 82.746094 Z M 348 81 " clip-rule="nonzero"/></clipPath><clipPath id="8e982b48ca"><rect x="0" width="522" y="0" height="128"/></clipPath></defs><g transform="matrix(1, 0, 0, 1, 330, 490)"><g clip-path="url(#8ce19f9bd8)"><g clip-path="url(#26991c2daa)"><g clip-path="url(#2f09695669)"><g transform="matrix(1, 0, 0, 1, 0.000000000000056843, -0.000000000000056843)"><g clip-path="url(#bc6667f952)"><g clip-path="url(#69eba553c6)"><g clip-path="url(#12e6f01e5f)"><path fill="#03a678" d="M 0.144531 0.792969 L 24.910156 0.792969 L 24.910156 22.433594 L 0.144531 22.433594 Z M 0.144531 0.792969 " fill-opacity="1" fill-rule="nonzero"/></g></g></g></g></g></g><g clip-path="url(#2970306bc2)"><g clip-path="url(#9324798f1b)"><g transform="matrix(1, 0, 0, 1, 36, -0.000000000000056843)"><g clip-path="url(#e1bc076b24)"><g clip-path="url(#8280439777)"><g clip-path="url(#959adc950f)"><path fill="#03a678" d="M 0.0585938 0.792969 L 24.824219 0.792969 L 24.824219 22.433594 L 0.0585938 22.433594 Z M 0.0585938 0.792969 " fill-opacity="1" fill-rule="nonzero"/></g></g></g></g></g></g></g></g><g transform="matrix(1, 0, 0, 1, 47, 257)"><g clip-path="url(#8e982b48ca)"><g clip-path="url(#c5bb2062e2)"><path fill="#014040" d="M 28.085938 68.3125 C 28.40625 72.910156 28.121094 77.226562 26.28125 81.347656 C 25.328125 83.472656 23.710938 85.125 21.363281 85.09375 C 19.648438 85.09375 17.808594 84.488281 16.253906 83.695312 C 6.613281 78.875 -0.589844 67.203125 0.871094 55.179688 C 1.757812 47.914062 4.707031 41.507812 9.371094 35.988281 C 13.273438 31.355469 17.554688 27.074219 21.679688 22.664062 C 24.3125 19.839844 26.785156 16.988281 28.152344 13.308594 C 29.707031 9.214844 29.738281 5.1875 28.121094 1.125 C 28.054688 0.9375 27.992188 0.746094 27.898438 0.269531 C 28.914062 1 29.738281 1.539062 30.5 2.109375 C 35.414062 5.882812 38.429688 10.863281 39.347656 17.019531 C 39.730469 19.492188 39.855469 22.03125 40.078125 24.566406 C 40.300781 27.074219 40.203125 29.675781 41.347656 32.023438 C 41.757812 32.878906 42.265625 33.671875 42.835938 34.371094 C 43.882812 35.605469 45.121094 35.574219 45.851562 34.148438 C 46.582031 32.785156 46.992188 31.292969 47.46875 29.800781 C 47.785156 28.820312 47.976562 27.804688 48.355469 26.789062 C 50.007812 32.179688 53.464844 36.527344 56.289062 41.191406 C 60.441406 48.011719 62.378906 55.402344 60.886719 63.269531 C 58.953125 73.417969 53.019531 80.746094 43.3125 84.648438 C 39.984375 85.980469 36.777344 84.710938 35.226562 80.429688 C 33.828125 76.589844 33.511719 72.625 33.859375 68.34375 C 39.222656 70.722656 44.582031 72.179688 50.578125 70.277344 C 46.359375 67.742188 42.835938 64.789062 39.953125 60.730469 C 42.871094 61.429688 45.566406 61.808594 48.578125 60.953125 C 44.042969 58.097656 40.679688 54.449219 37.890625 49.816406 C 40.363281 50.738281 42.617188 51.085938 45.027344 50.546875 C 41.125 47.34375 37.761719 43.792969 35.445312 39.128906 C 37.03125 39.351562 38.460938 39.570312 40.171875 39.824219 C 35.160156 35.796875 33.035156 30.46875 30.941406 24.664062 C 29.164062 30.5 26.820312 35.671875 22.503906 39.824219 C 23.867188 39.476562 25.234375 39.160156 26.785156 38.746094 C 24.375 43.539062 20.949219 47.183594 16.890625 50.546875 C 19.300781 51.152344 21.554688 50.675781 24.089844 49.914062 C 21.234375 54.449219 17.90625 58.003906 13.464844 60.890625 C 16.351562 61.9375 19.015625 61.300781 21.902344 60.855469 C 18.984375 64.789062 15.527344 67.773438 11.273438 70.308594 C 17.269531 72.148438 22.632812 70.660156 28.054688 68.375 Z M 28.085938 68.3125 " fill-opacity="1" fill-rule="nonzero"/></g><path fill="#014040" d="M 72.171875 33.949219 L 64.300781 33.949219 L 64.300781 12.792969 L 100.21875 12.792969 L 100.21875 33.949219 L 92.34375 33.949219 L 92.34375 79.90625 L 72.171875 79.90625 Z M 72.171875 33.949219 " fill-opacity="1" fill-rule="nonzero"/><g clip-path="url(#0decf94713)"><path fill="#014040" d="M 153.257812 54.125 C 153.257812 70.164062 141.546875 82.070312 126.097656 82.070312 C 110.648438 82.070312 98.9375 70.164062 98.9375 54.125 C 98.9375 38.082031 110.648438 26.175781 126.097656 26.175781 C 141.546875 26.175781 153.257812 38.082031 153.257812 54.125 Z M 118.519531 54.125 C 118.519531 59.632812 121.867188 63.375 126.097656 63.375 C 130.332031 63.375 133.675781 59.632812 133.675781 54.125 C 133.675781 48.613281 130.332031 44.972656 126.097656 44.972656 C 121.867188 44.972656 118.519531 48.808594 118.519531 54.125 Z M 118.519531 54.125 " fill-opacity="1" fill-rule="nonzero"/></g><path fill="#014040" d="M 175.300781 79.90625 L 156.605469 79.90625 L 156.605469 28.339844 L 174.320312 28.339844 L 174.320312 39.953125 C 175.402344 36.3125 180.417969 27.453125 187.503906 27.453125 L 188.980469 27.453125 L 188.980469 49.695312 C 188.292969 49.398438 186.914062 49.203125 185.734375 49.203125 C 179.335938 49.203125 175.203125 53.039062 175.203125 55.796875 L 175.203125 79.90625 Z M 175.300781 79.90625 " fill-opacity="1" fill-rule="nonzero"/><path fill="#014040" d="M 228.835938 79.710938 C 226.574219 80.988281 222.636719 81.285156 218.996094 81.285156 C 203.152344 81.285156 191.144531 71.640625 191.144531 54.023438 C 191.144531 36.410156 203.152344 26.765625 218.996094 26.765625 C 234.839844 26.765625 226.574219 27.160156 228.835938 28.339844 L 228.835938 47.628906 L 228.34375 47.628906 C 227.164062 45.957031 224.113281 44.773438 220.175781 44.773438 C 216.238281 44.773438 210.632812 48.613281 210.632812 53.925781 C 210.632812 59.242188 214.863281 63.078125 220.175781 63.078125 C 225.492188 63.078125 227.164062 61.898438 228.34375 60.226562 L 228.835938 60.226562 Z M 228.835938 79.710938 " fill-opacity="1" fill-rule="nonzero"/><path fill="#014040" d="M 251.765625 79.90625 L 233.066406 79.90625 L 233.066406 9.839844 L 250.78125 9.839844 L 250.78125 37.886719 C 252.160156 34.640625 256.882812 27.554688 265.34375 27.554688 C 273.808594 27.554688 281.089844 34.738281 281.089844 46.449219 L 281.089844 80.003906 L 262.394531 80.003906 L 262.394531 53.238281 C 262.394531 48.710938 260.523438 46.644531 257.175781 46.644531 C 253.832031 46.644531 251.570312 49.203125 251.570312 52.351562 L 251.570312 80.003906 Z M 251.765625 79.90625 " fill-opacity="1" fill-rule="nonzero"/><path fill="#014040" d="M 320.550781 56.582031 L 314.058594 79.90625 L 297.820312 79.90625 L 282.273438 28.339844 L 300.96875 28.339844 L 306.480469 53.140625 L 313.664062 28.339844 L 326.851562 28.339844 L 334.230469 53.140625 L 339.542969 28.339844 L 358.046875 28.339844 L 342.59375 79.90625 L 327.144531 79.90625 L 320.648438 56.582031 Z M 320.550781 56.582031 " fill-opacity="1" fill-rule="nonzero"/><g clip-path="url(#3ff0dadf4a)"><path fill="#014040" d="M 409.808594 54.125 C 409.808594 70.164062 398.097656 82.070312 382.648438 82.070312 C 367.195312 82.070312 355.488281 70.164062 355.488281 54.125 C 355.488281 38.082031 367.195312 26.175781 382.648438 26.175781 C 398.097656 26.175781 409.808594 38.082031 409.808594 54.125 Z M 375.070312 54.125 C 375.070312 59.632812 378.414062 63.375 382.648438 63.375 C 386.878906 63.375 390.222656 59.632812 390.222656 54.125 C 390.222656 48.613281 386.878906 44.972656 382.648438 44.972656 C 378.414062 44.972656 375.070312 48.808594 375.070312 54.125 Z M 375.070312 54.125 " fill-opacity="1" fill-rule="nonzero"/></g><g clip-path="url(#20a828728f)"><path fill="#014040" d="M 466.195312 54.125 C 466.195312 70.164062 454.484375 82.070312 439.035156 82.070312 C 423.585938 82.070312 411.875 70.164062 411.875 54.125 C 411.875 38.082031 423.585938 26.175781 439.035156 26.175781 C 454.484375 26.175781 466.195312 38.082031 466.195312 54.125 Z M 431.457031 54.125 C 431.457031 59.632812 434.804688 63.375 439.035156 63.375 C 443.265625 63.375 446.613281 59.632812 446.613281 54.125 C 446.613281 48.613281 443.265625 44.972656 439.035156 44.972656 C 434.804688 44.972656 431.457031 48.808594 431.457031 54.125 Z M 431.457031 54.125 " fill-opacity="1" fill-rule="nonzero"/></g><path fill="#014040" d="M 503 71.050781 C 499.949219 77.644531 494.734375 81.578125 487.746094 81.578125 C 476.824219 81.578125 468.359375 70.65625 468.359375 54.515625 C 468.359375 38.378906 476.824219 26.570312 487.746094 26.570312 C 498.667969 26.570312 498.667969 30.113281 501.71875 35.820312 L 501.71875 9.742188 L 520.417969 9.742188 L 520.417969 79.808594 L 503 79.808594 L 503 70.953125 Z M 495.027344 45.070312 C 491.191406 45.070312 487.84375 48.710938 487.84375 54.125 C 487.84375 59.535156 491.09375 63.175781 495.027344 63.175781 C 498.964844 63.175781 502.410156 59.242188 502.410156 54.125 C 502.410156 49.007812 498.964844 45.070312 495.027344 45.070312 Z M 495.027344 45.070312 " fill-opacity="1" fill-rule="nonzero"/><g clip-path="url(#7841f775fe)"><path fill="#014040" d="M 181.601562 98.308594 C 179.828125 96.929688 177.46875 96.4375 175.105469 96.4375 C 170.382812 96.4375 166.742188 100.179688 166.742188 105.097656 C 166.742188 110.019531 170.382812 113.957031 175.105469 113.957031 C 179.828125 113.957031 179.828125 113.464844 181.601562 112.085938 L 181.601562 126.355469 C 179.335938 127.535156 176.878906 127.832031 174.21875 127.832031 C 161.917969 127.832031 153.652344 117.597656 153.652344 105.097656 C 153.652344 92.601562 162.015625 82.464844 174.21875 82.464844 C 186.421875 82.464844 179.4375 82.859375 181.601562 84.039062 Z M 181.601562 98.308594 " fill-opacity="1" fill-rule="nonzero"/></g><g clip-path="url(#f43cab4692)"><path fill="#014040" d="M 313.859375 81.480469 L 325.964844 81.480469 L 325.964844 126.945312 L 313.859375 126.945312 Z M 313.859375 81.480469 " fill-opacity="1" fill-rule="nonzero"/></g><g clip-path="url(#db39ca22be)"><path fill="#014040" d="M 360.503906 90.4375 L 348.402344 90.4375 L 348.402344 81.480469 L 360.503906 81.480469 Z M 360.503906 126.945312 L 348.402344 126.945312 L 348.402344 93.488281 L 360.503906 93.488281 Z M 360.503906 126.945312 " fill-opacity="1" fill-rule="nonzero"/></g><path stroke-linecap="butt" transform="matrix(1.2, 0.000000000000001661, -0.000000000000001661, 1.2, 312.809672, 81.254254)" fill="none" stroke-linejoin="miter" d="M -0.000898665 0.501013 L 40.57202 0.501013 " stroke="#03a678" stroke-width="1" stroke-opacity="1" stroke-miterlimit="4"/><path stroke-linecap="round" transform="matrix(1.2, 0.000000000000001661, -0.000000000000001661, 1.2, 312.809672, 81.254254)" fill="none" stroke-linejoin="round" d="M 38.573322 -0.999638 L 40.57202 0.501013 L 38.573322 1.998409 " stroke="#03a678" stroke-width="1" stroke-opacity="1" stroke-miterlimit="4"/></g></g></svg>