<svg xmlns="http://www.w3.org/2000/svg" xmlns:xlink="http://www.w3.org/1999/xlink" width="800" zoomAndPan="magnify" viewBox="0 0 600 599.999999" height="800" preserveAspectRatio="xMidYMid meet" version="1.0"><path fill="#014040" d="M 285.328125 446.695312 C 287.167969 473.347656 285.511719 498.347656 274.851562 522.242188 C 269.335938 534.558594 259.960938 544.117188 246.359375 543.933594 C 236.433594 543.933594 225.769531 540.441406 216.765625 535.847656 C 160.882812 507.90625 119.15625 440.261719 127.613281 370.59375 C 132.757812 328.5 149.855469 291.367188 176.875 259.382812 C 199.484375 232.546875 224.300781 207.730469 248.195312 182.179688 C 263.453125 165.820312 277.792969 149.277344 285.695312 127.953125 C 294.703125 104.242188 294.886719 80.898438 285.511719 57.367188 C 285.144531 56.265625 284.777344 55.160156 284.226562 52.40625 C 290.105469 56.632812 294.886719 59.757812 299.296875 63.066406 C 327.789062 84.941406 345.253906 113.800781 350.582031 149.460938 C 352.789062 163.796875 353.523438 178.503906 354.8125 193.210938 C 356.097656 207.730469 355.546875 222.804688 362.164062 236.40625 C 364.554688 241.371094 367.496094 245.964844 370.804688 250.007812 C 376.871094 257.179688 384.039062 256.996094 388.265625 248.722656 C 392.492188 240.816406 394.882812 232.179688 397.640625 223.539062 C 399.480469 217.839844 400.582031 211.957031 402.789062 206.078125 C 412.347656 237.324219 432.382812 262.507812 448.742188 289.53125 C 472.824219 329.050781 484.035156 371.878906 475.394531 417.46875 C 464.183594 476.289062 429.808594 518.75 373.5625 541.359375 C 354.261719 549.082031 335.695312 541.726562 326.6875 516.914062 C 318.597656 494.671875 316.761719 471.695312 318.78125 446.878906 C 349.847656 460.664062 380.914062 469.121094 415.65625 458.089844 C 391.207031 443.386719 370.804688 426.289062 354.074219 402.761719 C 370.988281 406.804688 386.613281 409.011719 404.074219 404.046875 C 377.789062 387.503906 358.304688 366.367188 342.128906 339.527344 C 356.464844 344.859375 369.515625 346.882812 383.488281 343.757812 C 360.878906 325.191406 341.390625 304.601562 327.972656 277.582031 C 337.164062 278.867188 345.4375 280.15625 355.363281 281.625 C 326.320312 258.28125 314.003906 227.398438 301.871094 193.761719 C 291.578125 227.582031 277.976562 257.546875 252.976562 281.625 C 260.878906 279.605469 268.785156 277.765625 277.792969 275.375 C 263.820312 303.132812 243.96875 324.273438 220.441406 343.757812 C 234.410156 347.25 247.460938 344.492188 262.167969 340.078125 C 245.625 366.367188 226.324219 386.953125 200.589844 403.679688 C 217.316406 409.746094 232.757812 406.070312 249.484375 403.496094 C 232.574219 426.289062 212.535156 443.570312 187.90625 458.273438 C 222.644531 468.9375 253.710938 460.296875 285.144531 447.0625 Z M 285.328125 446.695312 " fill-opacity="1" fill-rule="nonzero"/></svg>