<svg xmlns="http://www.w3.org/2000/svg" xmlns:xlink="http://www.w3.org/1999/xlink" width="800" zoomAndPan="magnify" viewBox="0 0 600 599.999999" height="800" preserveAspectRatio="xMidYMid meet" version="1.0"><path fill="#f27405" d="M 33.480469 244.222656 L 23.878906 244.222656 L 23.878906 218.425781 L 67.679688 218.425781 L 67.679688 244.222656 L 58.078125 244.222656 L 58.078125 300.265625 L 33.480469 300.265625 Z M 33.480469 244.222656 " fill-opacity="1" fill-rule="nonzero"/><path fill="#f27405" d="M 132.359375 268.824219 C 132.359375 288.382812 118.078125 302.902344 99.238281 302.902344 C 80.398438 302.902344 66.121094 288.382812 66.121094 268.824219 C 66.121094 249.265625 80.398438 234.742188 99.238281 234.742188 C 118.078125 234.742188 132.359375 249.265625 132.359375 268.824219 Z M 90 268.824219 C 90 275.542969 94.078125 280.105469 99.238281 280.105469 C 104.398438 280.105469 108.480469 275.542969 108.480469 268.824219 C 108.480469 262.105469 104.398438 257.664062 99.238281 257.664062 C 94.078125 257.664062 90 262.34375 90 268.824219 Z M 90 268.824219 " fill-opacity="1" fill-rule="nonzero"/><path fill="#f27405" d="M 159.238281 300.265625 L 136.441406 300.265625 L 136.441406 237.382812 L 158.039062 237.382812 L 158.039062 251.542969 C 159.359375 247.105469 165.480469 236.304688 174.121094 236.304688 L 175.921875 236.304688 L 175.921875 263.425781 C 175.078125 263.0625 173.398438 262.824219 171.960938 262.824219 C 164.160156 262.824219 159.121094 267.503906 159.121094 270.863281 L 159.121094 300.265625 Z M 159.238281 300.265625 " fill-opacity="1" fill-rule="nonzero"/><path fill="#f27405" d="M 224.519531 300.023438 C 221.761719 301.582031 216.960938 301.945312 212.519531 301.945312 C 193.199219 301.945312 178.558594 290.183594 178.558594 268.703125 C 178.558594 247.222656 193.199219 235.464844 212.519531 235.464844 C 231.839844 235.464844 221.761719 235.945312 224.519531 237.382812 L 224.519531 260.902344 L 223.921875 260.902344 C 222.480469 258.863281 218.761719 257.425781 213.960938 257.425781 C 209.160156 257.425781 202.320312 262.105469 202.320312 268.582031 C 202.320312 275.0625 207.480469 279.742188 213.960938 279.742188 C 220.441406 279.742188 222.480469 278.304688 223.921875 276.265625 L 224.519531 276.265625 Z M 224.519531 300.023438 " fill-opacity="1" fill-rule="nonzero"/><path fill="#f27405" d="M 252.480469 300.265625 L 229.679688 300.265625 L 229.679688 214.824219 L 251.28125 214.824219 L 251.28125 249.023438 C 252.960938 245.0625 258.71875 236.425781 269.039062 236.425781 C 279.359375 236.425781 288.238281 245.183594 288.238281 259.464844 L 288.238281 300.382812 L 265.441406 300.382812 L 265.441406 267.742188 C 265.441406 262.222656 263.160156 259.703125 259.078125 259.703125 C 255 259.703125 252.238281 262.824219 252.238281 266.664062 L 252.238281 300.382812 Z M 252.480469 300.265625 " fill-opacity="1" fill-rule="nonzero"/><path fill="#f27405" d="M 336.359375 271.824219 L 328.441406 300.265625 L 308.640625 300.265625 L 289.679688 237.382812 L 312.480469 237.382812 L 319.199219 267.625 L 327.960938 237.382812 L 344.039062 237.382812 L 353.039062 267.625 L 359.519531 237.382812 L 382.078125 237.382812 L 363.238281 300.265625 L 344.398438 300.265625 L 336.480469 271.824219 Z M 336.359375 271.824219 " fill-opacity="1" fill-rule="nonzero"/><path fill="#f27405" d="M 445.199219 268.824219 C 445.199219 288.382812 430.921875 302.902344 412.078125 302.902344 C 393.238281 302.902344 378.960938 288.382812 378.960938 268.824219 C 378.960938 249.265625 393.238281 234.742188 412.078125 234.742188 C 430.921875 234.742188 445.199219 249.265625 445.199219 268.824219 Z M 402.839844 268.824219 C 402.839844 275.542969 406.921875 280.105469 412.078125 280.105469 C 417.238281 280.105469 421.320312 275.542969 421.320312 268.824219 C 421.320312 262.105469 417.238281 257.664062 412.078125 257.664062 C 406.921875 257.664062 402.839844 262.34375 402.839844 268.824219 Z M 402.839844 268.824219 " fill-opacity="1" fill-rule="nonzero"/><path fill="#f27405" d="M 513.960938 268.824219 C 513.960938 288.382812 499.679688 302.902344 480.839844 302.902344 C 462 302.902344 447.71875 288.382812 447.71875 268.824219 C 447.71875 249.265625 462 234.742188 480.839844 234.742188 C 499.679688 234.742188 513.960938 249.265625 513.960938 268.824219 Z M 471.601562 268.824219 C 471.601562 275.542969 475.679688 280.105469 480.839844 280.105469 C 486 280.105469 490.078125 275.542969 490.078125 268.824219 C 490.078125 262.105469 486 257.664062 480.839844 257.664062 C 475.679688 257.664062 471.601562 262.34375 471.601562 268.824219 Z M 471.601562 268.824219 " fill-opacity="1" fill-rule="nonzero"/><path fill="#f27405" d="M 558.839844 289.464844 C 555.121094 297.503906 548.761719 302.304688 540.238281 302.304688 C 526.921875 302.304688 516.601562 288.984375 516.601562 269.304688 C 516.601562 249.625 526.921875 235.222656 540.238281 235.222656 C 553.558594 235.222656 553.558594 239.542969 557.28125 246.503906 L 557.28125 214.703125 L 580.078125 214.703125 L 580.078125 300.144531 L 558.839844 300.144531 L 558.839844 289.34375 Z M 549.121094 257.785156 C 544.441406 257.785156 540.359375 262.222656 540.359375 268.824219 C 540.359375 275.425781 544.320312 279.863281 549.121094 279.863281 C 553.921875 279.863281 558.121094 275.0625 558.121094 268.824219 C 558.121094 262.582031 553.921875 257.785156 549.121094 257.785156 Z M 549.121094 257.785156 " fill-opacity="1" fill-rule="nonzero"/><path fill="#f27405" d="M 166.921875 322.703125 C 164.761719 321.023438 161.878906 320.425781 159 320.425781 C 153.238281 320.425781 148.800781 324.984375 148.800781 330.984375 C 148.800781 336.984375 153.238281 341.785156 159 341.785156 C 164.761719 341.785156 164.761719 341.183594 166.921875 339.503906 L 166.921875 356.902344 C 164.160156 358.34375 161.160156 358.703125 157.921875 358.703125 C 142.921875 358.703125 132.839844 346.222656 132.839844 330.984375 C 132.839844 315.742188 143.039062 303.382812 157.921875 303.382812 C 172.800781 303.382812 164.28125 303.863281 166.921875 305.304688 Z M 166.921875 322.703125 " fill-opacity="1" fill-rule="nonzero"/><path fill="#f27405" d="M 212.878906 337.222656 C 212.878906 349.945312 203.640625 359.304688 191.398438 359.304688 C 179.160156 359.304688 169.921875 349.945312 169.921875 337.222656 C 169.921875 324.503906 179.160156 315.144531 191.398438 315.144531 C 203.640625 315.144531 212.878906 324.503906 212.878906 337.222656 Z M 185.28125 337.222656 C 185.28125 341.542969 187.921875 344.542969 191.28125 344.542969 C 194.640625 344.542969 197.28125 341.542969 197.28125 337.222656 C 197.28125 332.902344 194.640625 330.023438 191.28125 330.023438 C 187.921875 330.023438 185.28125 333.023438 185.28125 337.222656 Z M 185.28125 337.222656 " fill-opacity="1" fill-rule="nonzero"/><path fill="#f27405" d="M 230.28125 357.625 L 215.519531 357.625 L 215.519531 316.824219 L 229.558594 316.824219 L 229.558594 323.0625 C 231.238281 320.304688 234.960938 315.984375 241.078125 315.984375 C 247.199219 315.984375 253.558594 321.625 253.558594 330.863281 L 253.558594 357.503906 L 238.800781 357.503906 L 238.800781 336.144531 C 238.800781 332.542969 237.359375 330.984375 234.71875 330.984375 C 232.078125 330.984375 230.28125 333.023438 230.28125 335.425781 Z M 230.28125 357.625 " fill-opacity="1" fill-rule="nonzero"/><path fill="#f27405" d="M 280.558594 316.703125 L 280.558594 329.902344 C 277.078125 328.464844 273.960938 328.105469 273 328.105469 C 272.039062 328.105469 271.679688 328.34375 271.679688 328.824219 C 271.679688 329.304688 272.398438 330.144531 273.960938 331.582031 C 282.121094 338.425781 283.921875 341.785156 283.921875 346.222656 C 283.921875 352.945312 278.878906 359.0625 268.558594 359.0625 C 258.238281 359.0625 260.28125 358.222656 257.519531 357.144531 L 257.519531 344.0625 C 261.121094 345.742188 264.480469 346.34375 266.519531 346.34375 C 268.558594 346.34375 267.839844 346.105469 267.839844 345.742188 C 267.839844 345.023438 267 344.0625 264.839844 342.023438 C 257.160156 335.785156 256.078125 332.542969 256.078125 328.34375 C 256.078125 321.382812 260.28125 315.382812 271.441406 315.503906 C 275.160156 315.503906 278.039062 315.863281 280.558594 316.703125 Z M 280.558594 316.703125 " fill-opacity="1" fill-rule="nonzero"/><path fill="#f27405" d="M 310.441406 351.382812 C 308.761719 354.144531 305.039062 358.464844 298.921875 358.464844 C 292.800781 358.464844 286.441406 352.824219 286.441406 343.582031 L 286.441406 316.945312 L 301.199219 316.945312 L 301.199219 338.304688 C 301.199219 341.902344 302.640625 343.464844 305.28125 343.464844 C 307.921875 343.464844 309.71875 341.421875 309.71875 339.023438 L 309.71875 316.945312 L 324.480469 316.945312 L 324.480469 357.742188 L 310.441406 357.742188 Z M 310.441406 351.382812 " fill-opacity="1" fill-rule="nonzero"/><path fill="#f27405" d="M 328.199219 302.183594 L 342.960938 302.183594 L 342.960938 357.625 L 328.199219 357.625 Z M 328.199219 302.183594 " fill-opacity="1" fill-rule="nonzero"/><path fill="#f27405" d="M 364.078125 331.105469 L 364.078125 357.625 L 349.320312 357.625 L 349.320312 331.105469 L 345.960938 331.105469 L 345.960938 316.824219 L 349.320312 316.824219 L 349.320312 306.984375 L 364.078125 304.824219 L 364.078125 316.824219 L 367.441406 316.824219 L 367.441406 331.105469 Z M 364.078125 331.105469 " fill-opacity="1" fill-rule="nonzero"/><path fill="#f27405" d="M 385.078125 313.105469 L 370.320312 313.105469 L 370.320312 302.183594 L 385.078125 302.183594 Z M 385.078125 357.625 L 370.320312 357.625 L 370.320312 316.824219 L 385.078125 316.824219 Z M 385.078125 357.625 " fill-opacity="1" fill-rule="nonzero"/><path fill="#f27405" d="M 403.679688 357.625 L 388.921875 357.625 L 388.921875 316.824219 L 402.960938 316.824219 L 402.960938 323.0625 C 404.640625 320.304688 408.359375 315.984375 414.480469 315.984375 C 420.601562 315.984375 426.960938 321.625 426.960938 330.863281 L 426.960938 357.503906 L 412.199219 357.503906 L 412.199219 336.144531 C 412.199219 332.542969 410.761719 330.984375 408.121094 330.984375 C 405.480469 330.984375 403.679688 333.023438 403.679688 335.425781 Z M 403.679688 357.625 " fill-opacity="1" fill-rule="nonzero"/><path fill="#f27405" d="M 446.761719 374.542969 C 442.800781 374.542969 439.199219 374.0625 435.839844 373.34375 L 435.839844 358.703125 C 439.320312 359.664062 442.320312 360.144531 446.28125 360.144531 C 452.28125 360.144531 454.921875 358.222656 454.921875 352.582031 L 454.921875 350.183594 C 452.519531 353.183594 449.160156 355.105469 445.320312 355.105469 C 437.160156 355.105469 429.601562 346.945312 429.601562 335.183594 C 429.601562 323.425781 437.160156 315.382812 445.320312 315.382812 C 453.480469 315.382812 453.480469 318.144531 455.878906 321.742188 L 455.878906 316.703125 L 469.679688 316.703125 L 469.679688 351.863281 C 469.679688 366.625 464.039062 374.304688 446.761719 374.304688 Z M 455.039062 335.664062 C 455.039062 332.664062 452.761719 330.023438 450 330.023438 C 447.238281 330.023438 444.960938 332.542969 444.960938 335.664062 C 444.960938 338.785156 447.238281 341.183594 450 341.183594 C 452.761719 341.183594 455.039062 338.664062 455.039062 335.664062 Z M 455.039062 335.664062 " fill-opacity="1" fill-rule="nonzero"/></svg>