<svg xmlns="http://www.w3.org/2000/svg" xmlns:xlink="http://www.w3.org/1999/xlink" width="800" zoomAndPan="magnify" viewBox="0 0 600 599.999999" height="800" preserveAspectRatio="xMidYMid meet" version="1.0"><path fill="#03a678" d="M 279.171875 302.367188 C 280.246094 317.929688 279.28125 332.527344 273.054688 346.480469 C 269.835938 353.671875 264.359375 359.253906 256.417969 359.148438 C 250.621094 359.148438 244.394531 357.109375 239.136719 354.425781 C 206.507812 338.109375 182.140625 298.609375 187.078125 257.929688 C 190.085938 233.351562 200.066406 211.667969 215.84375 192.992188 C 229.046875 177.324219 243.539062 162.832031 257.492188 147.914062 C 266.398438 138.359375 274.773438 128.699219 279.386719 116.25 C 284.644531 102.402344 284.753906 88.773438 279.28125 75.03125 C 279.066406 74.390625 278.851562 73.746094 278.527344 72.136719 C 281.964844 74.605469 284.753906 76.429688 287.328125 78.359375 C 303.964844 91.132812 314.164062 107.984375 317.277344 128.808594 C 318.5625 137.179688 318.992188 145.765625 319.746094 154.351562 C 320.496094 162.832031 320.175781 171.632812 324.039062 179.578125 C 325.433594 182.476562 327.152344 185.160156 329.082031 187.519531 C 332.625 191.707031 336.8125 191.597656 339.28125 186.769531 C 341.75 182.152344 343.144531 177.109375 344.753906 172.0625 C 345.828125 168.734375 346.472656 165.300781 347.757812 161.867188 C 353.339844 180.113281 365.039062 194.816406 374.59375 210.597656 C 388.652344 233.671875 395.199219 258.683594 390.15625 285.300781 C 383.609375 319.648438 363.539062 344.441406 330.691406 357.644531 C 319.421875 362.152344 308.582031 357.859375 303.324219 343.367188 C 298.601562 330.382812 297.527344 316.964844 298.707031 302.476562 C 316.847656 310.523438 334.984375 315.460938 355.273438 309.023438 C 340.996094 300.433594 329.082031 290.453125 319.316406 276.714844 C 329.191406 279.074219 338.3125 280.363281 348.511719 277.464844 C 333.160156 267.804688 321.785156 255.460938 312.339844 239.792969 C 320.710938 242.902344 328.332031 244.085938 336.488281 242.261719 C 323.285156 231.417969 311.910156 219.398438 304.074219 203.621094 C 309.441406 204.371094 314.269531 205.121094 320.066406 205.980469 C 303.109375 192.351562 295.917969 174.316406 288.832031 154.675781 C 282.820312 174.425781 274.878906 191.921875 260.28125 205.980469 C 264.898438 204.800781 269.511719 203.726562 274.773438 202.332031 C 266.613281 218.539062 255.023438 230.882812 241.285156 242.261719 C 249.441406 244.300781 257.0625 242.6875 265.648438 240.113281 C 255.988281 255.460938 244.71875 267.484375 229.691406 277.25 C 239.457031 280.792969 248.476562 278.644531 258.242188 277.144531 C 248.367188 290.453125 236.667969 300.542969 222.285156 309.128906 C 242.570312 315.355469 260.710938 310.308594 279.066406 302.582031 Z M 279.171875 302.367188 " fill-opacity="1" fill-rule="nonzero"/><path fill="#03a678" d="M 61.605469 397.359375 L 53.019531 397.359375 L 53.019531 374.28125 L 92.195312 374.28125 L 92.195312 397.359375 L 83.609375 397.359375 L 83.609375 447.484375 L 61.605469 447.484375 Z M 61.605469 397.359375 " fill-opacity="1" fill-rule="nonzero"/><path fill="#03a678" d="M 150.050781 419.363281 C 150.050781 436.855469 137.277344 449.84375 120.425781 449.84375 C 103.574219 449.84375 90.800781 436.855469 90.800781 419.363281 C 90.800781 401.867188 103.574219 388.878906 120.425781 388.878906 C 137.277344 388.878906 150.050781 401.867188 150.050781 419.363281 Z M 112.160156 419.363281 C 112.160156 425.371094 115.808594 429.453125 120.425781 429.453125 C 125.039062 429.453125 128.691406 425.371094 128.691406 419.363281 C 128.691406 413.351562 125.039062 409.378906 120.425781 409.378906 C 115.808594 409.378906 112.160156 413.566406 112.160156 419.363281 Z M 112.160156 419.363281 " fill-opacity="1" fill-rule="nonzero"/><path fill="#03a678" d="M 174.09375 447.484375 L 153.699219 447.484375 L 153.699219 391.238281 L 173.019531 391.238281 L 173.019531 403.90625 C 174.199219 399.933594 179.671875 390.273438 187.402344 390.273438 L 189.011719 390.273438 L 189.011719 414.53125 C 188.261719 414.210938 186.757812 413.996094 185.46875 413.996094 C 178.492188 413.996094 173.984375 418.179688 173.984375 421.1875 L 173.984375 447.484375 Z M 174.09375 447.484375 " fill-opacity="1" fill-rule="nonzero"/><path fill="#03a678" d="M 232.480469 447.269531 C 230.011719 448.664062 225.71875 448.984375 221.75 448.984375 C 204.46875 448.984375 191.371094 438.46875 191.371094 419.253906 C 191.371094 400.042969 204.46875 389.523438 221.75 389.523438 C 239.027344 389.523438 230.011719 389.953125 232.480469 391.238281 L 232.480469 412.277344 L 231.945312 412.277344 C 230.65625 410.453125 227.328125 409.164062 223.035156 409.164062 C 218.742188 409.164062 212.625 413.351562 212.625 419.148438 C 212.625 424.941406 217.242188 429.128906 223.035156 429.128906 C 228.832031 429.128906 230.65625 427.839844 231.945312 426.015625 L 232.480469 426.015625 Z M 232.480469 447.269531 " fill-opacity="1" fill-rule="nonzero"/><path fill="#03a678" d="M 257.492188 447.484375 L 237.097656 447.484375 L 237.097656 371.0625 L 256.417969 371.0625 L 256.417969 401.652344 C 257.921875 398.109375 263.070312 390.382812 272.304688 390.382812 C 281.535156 390.382812 289.476562 398.21875 289.476562 410.988281 L 289.476562 447.589844 L 269.082031 447.589844 L 269.082031 418.394531 C 269.082031 413.457031 267.042969 411.203125 263.394531 411.203125 C 259.746094 411.203125 257.277344 413.996094 257.277344 417.429688 L 257.277344 447.589844 Z M 257.492188 447.484375 " fill-opacity="1" fill-rule="nonzero"/><path fill="#03a678" d="M 332.515625 422.046875 L 325.433594 447.484375 L 307.722656 447.484375 L 290.765625 391.238281 L 311.15625 391.238281 L 317.167969 418.289062 L 325.003906 391.238281 L 339.386719 391.238281 L 347.4375 418.289062 L 353.234375 391.238281 L 373.410156 391.238281 L 356.558594 447.484375 L 339.707031 447.484375 L 332.625 422.046875 Z M 332.515625 422.046875 " fill-opacity="1" fill-rule="nonzero"/><path fill="#03a678" d="M 429.871094 419.363281 C 429.871094 436.855469 417.097656 449.84375 400.246094 449.84375 C 383.394531 449.84375 370.621094 436.855469 370.621094 419.363281 C 370.621094 401.867188 383.394531 388.878906 400.246094 388.878906 C 417.097656 388.878906 429.871094 401.867188 429.871094 419.363281 Z M 391.980469 419.363281 C 391.980469 425.371094 395.628906 429.453125 400.246094 429.453125 C 404.859375 429.453125 408.511719 425.371094 408.511719 419.363281 C 408.511719 413.351562 404.859375 409.378906 400.246094 409.378906 C 395.628906 409.378906 391.980469 413.566406 391.980469 419.363281 Z M 391.980469 419.363281 " fill-opacity="1" fill-rule="nonzero"/><path fill="#03a678" d="M 491.371094 419.363281 C 491.371094 436.855469 478.597656 449.84375 461.75 449.84375 C 444.898438 449.84375 432.125 436.855469 432.125 419.363281 C 432.125 401.867188 444.898438 388.878906 461.75 388.878906 C 478.597656 388.878906 491.371094 401.867188 491.371094 419.363281 Z M 453.484375 419.363281 C 453.484375 425.371094 457.132812 429.453125 461.75 429.453125 C 466.363281 429.453125 470.011719 425.371094 470.011719 419.363281 C 470.011719 413.351562 466.363281 409.378906 461.75 409.378906 C 457.132812 409.378906 453.484375 413.566406 453.484375 419.363281 Z M 453.484375 419.363281 " fill-opacity="1" fill-rule="nonzero"/><path fill="#03a678" d="M 531.515625 437.824219 C 528.1875 445.015625 522.5 449.308594 514.878906 449.308594 C 502.964844 449.308594 493.734375 437.394531 493.734375 419.792969 C 493.734375 402.1875 502.964844 389.308594 514.878906 389.308594 C 526.792969 389.308594 526.792969 393.171875 530.121094 399.398438 L 530.121094 370.953125 L 550.511719 370.953125 L 550.511719 447.375 L 531.515625 447.375 L 531.515625 437.714844 Z M 522.820312 409.488281 C 518.636719 409.488281 514.984375 413.457031 514.984375 419.363281 C 514.984375 425.265625 518.527344 429.238281 522.820312 429.238281 C 527.113281 429.238281 530.871094 424.941406 530.871094 419.363281 C 530.871094 413.78125 527.113281 409.488281 522.820312 409.488281 Z M 522.820312 409.488281 " fill-opacity="1" fill-rule="nonzero"/><path fill="#03a678" d="M 180.960938 467.554688 C 179.03125 466.050781 176.453125 465.515625 173.878906 465.515625 C 168.726562 465.515625 164.753906 469.59375 164.753906 474.960938 C 164.753906 480.328125 168.726562 484.621094 173.878906 484.621094 C 179.03125 484.621094 179.03125 484.085938 180.960938 482.582031 L 180.960938 498.144531 C 178.492188 499.433594 175.808594 499.753906 172.910156 499.753906 C 159.496094 499.753906 150.476562 488.59375 150.476562 474.960938 C 150.476562 461.328125 159.601562 450.273438 172.910156 450.273438 C 186.222656 450.273438 178.601562 450.703125 180.960938 451.992188 Z M 180.960938 467.554688 " fill-opacity="1" fill-rule="nonzero"/><path fill="#03a678" d="M 222.070312 480.542969 C 222.070312 491.917969 213.804688 500.292969 202.859375 500.292969 C 191.910156 500.292969 183.644531 491.917969 183.644531 480.542969 C 183.644531 469.164062 191.910156 460.792969 202.859375 460.792969 C 213.804688 460.792969 222.070312 469.164062 222.070312 480.542969 Z M 197.382812 480.542969 C 197.382812 484.40625 199.746094 487.089844 202.75 487.089844 C 205.753906 487.089844 208.117188 484.40625 208.117188 480.542969 C 208.117188 476.679688 205.753906 474.101562 202.75 474.101562 C 199.746094 474.101562 197.382812 476.785156 197.382812 480.542969 Z M 197.382812 480.542969 " fill-opacity="1" fill-rule="nonzero"/><path fill="#03a678" d="M 237.632812 498.789062 L 224.433594 498.789062 L 224.433594 462.296875 L 236.988281 462.296875 L 236.988281 467.878906 C 238.492188 465.410156 241.820312 461.542969 247.292969 461.542969 C 252.769531 461.542969 258.457031 466.589844 258.457031 474.855469 L 258.457031 498.683594 L 245.253906 498.683594 L 245.253906 479.578125 C 245.253906 476.355469 243.964844 474.960938 241.605469 474.960938 C 239.242188 474.960938 237.632812 476.785156 237.632812 478.933594 Z M 237.632812 498.789062 " fill-opacity="1" fill-rule="nonzero"/><path fill="#03a678" d="M 282.605469 462.1875 L 282.605469 473.996094 C 279.496094 472.707031 276.703125 472.386719 275.84375 472.386719 C 274.984375 472.386719 274.664062 472.601562 274.664062 473.027344 C 274.664062 473.457031 275.308594 474.210938 276.703125 475.496094 C 284.003906 481.617188 285.613281 484.621094 285.613281 488.59375 C 285.613281 494.601562 281.105469 500.078125 271.875 500.078125 C 262.644531 500.078125 264.46875 499.324219 262 498.359375 L 262 486.660156 C 265.21875 488.164062 268.222656 488.699219 270.050781 488.699219 C 271.875 488.699219 271.230469 488.484375 271.230469 488.164062 C 271.230469 487.519531 270.476562 486.660156 268.546875 484.835938 C 261.675781 479.253906 260.710938 476.355469 260.710938 472.601562 C 260.710938 466.375 264.46875 461.007812 274.449219 461.113281 C 277.777344 461.113281 280.351562 461.4375 282.605469 462.1875 Z M 282.605469 462.1875 " fill-opacity="1" fill-rule="nonzero"/><path fill="#03a678" d="M 309.332031 493.207031 C 307.832031 495.675781 304.503906 499.539062 299.027344 499.539062 C 293.554688 499.539062 287.867188 494.496094 287.867188 486.230469 L 287.867188 462.402344 L 301.070312 462.402344 L 301.070312 481.507812 C 301.070312 484.726562 302.355469 486.125 304.71875 486.125 C 307.078125 486.125 308.6875 484.300781 308.6875 482.152344 L 308.6875 462.402344 L 321.890625 462.402344 L 321.890625 498.898438 L 309.332031 498.898438 Z M 309.332031 493.207031 " fill-opacity="1" fill-rule="nonzero"/><path fill="#03a678" d="M 325.21875 449.199219 L 338.421875 449.199219 L 338.421875 498.789062 L 325.21875 498.789062 Z M 325.21875 449.199219 " fill-opacity="1" fill-rule="nonzero"/><path fill="#03a678" d="M 357.3125 475.066406 L 357.3125 498.789062 L 344.109375 498.789062 L 344.109375 475.066406 L 341.105469 475.066406 L 341.105469 462.296875 L 344.109375 462.296875 L 344.109375 453.492188 L 357.3125 451.5625 L 357.3125 462.296875 L 360.316406 462.296875 L 360.316406 475.066406 Z M 357.3125 475.066406 " fill-opacity="1" fill-rule="nonzero"/><path fill="#03a678" d="M 376.09375 458.96875 L 362.894531 458.96875 L 362.894531 449.199219 L 376.09375 449.199219 Z M 376.09375 498.789062 L 362.894531 498.789062 L 362.894531 462.296875 L 376.09375 462.296875 Z M 376.09375 498.789062 " fill-opacity="1" fill-rule="nonzero"/><path fill="#03a678" d="M 392.730469 498.789062 L 379.53125 498.789062 L 379.53125 462.296875 L 392.089844 462.296875 L 392.089844 467.878906 C 393.589844 465.410156 396.917969 461.542969 402.390625 461.542969 C 407.867188 461.542969 413.554688 466.589844 413.554688 474.855469 L 413.554688 498.683594 L 400.351562 498.683594 L 400.351562 479.578125 C 400.351562 476.355469 399.066406 474.960938 396.703125 474.960938 C 394.34375 474.960938 392.730469 476.785156 392.730469 478.933594 Z M 392.730469 498.789062 " fill-opacity="1" fill-rule="nonzero"/><path fill="#03a678" d="M 431.265625 513.921875 C 427.722656 513.921875 424.503906 513.492188 421.496094 512.851562 L 421.496094 499.753906 C 424.609375 500.613281 427.292969 501.042969 430.835938 501.042969 C 436.203125 501.042969 438.5625 499.324219 438.5625 494.28125 L 438.5625 492.132812 C 436.417969 494.816406 433.410156 496.535156 429.976562 496.535156 C 422.679688 496.535156 415.917969 489.238281 415.917969 478.71875 C 415.917969 468.199219 422.679688 461.007812 429.976562 461.007812 C 437.277344 461.007812 437.277344 463.476562 439.421875 466.695312 L 439.421875 462.1875 L 451.765625 462.1875 L 451.765625 493.636719 C 451.765625 506.839844 446.722656 513.707031 431.265625 513.707031 Z M 438.671875 479.148438 C 438.671875 476.464844 436.632812 474.101562 434.164062 474.101562 C 431.695312 474.101562 429.65625 476.355469 429.65625 479.148438 C 429.65625 481.9375 431.695312 484.085938 434.164062 484.085938 C 436.632812 484.085938 438.671875 481.832031 438.671875 479.148438 Z M 438.671875 479.148438 " fill-opacity="1" fill-rule="nonzero"/></svg>