<svg xmlns="http://www.w3.org/2000/svg" xmlns:xlink="http://www.w3.org/1999/xlink" width="800" zoomAndPan="magnify" viewBox="0 0 600 599.999999" height="800" preserveAspectRatio="xMidYMid meet" version="1.0"><defs><clipPath id="0afe71c74c"><path d="M 99 378 L 130 378 L 130 379.164062 L 99 379.164062 Z M 99 378 " clip-rule="nonzero"/></clipPath><clipPath id="3804c66e18"><path d="M 274 377 L 288 377 L 288 379.164062 L 274 379.164062 Z M 274 377 " clip-rule="nonzero"/></clipPath><clipPath id="05c3680ea4"><path d="M 311 377 L 325 377 L 325 379.164062 L 311 379.164062 Z M 311 377 " clip-rule="nonzero"/></clipPath><clipPath id="e7b0c3b771"><path d="M 269.144531 364.792969 L 293.910156 364.792969 L 293.910156 386.433594 L 269.144531 386.433594 Z M 269.144531 364.792969 " clip-rule="nonzero"/></clipPath><clipPath id="6ed1da05e2"><path d="M 281.511719 364.792969 L 293.875 386.433594 L 269.144531 386.433594 Z M 281.511719 364.792969 " clip-rule="nonzero"/></clipPath><clipPath id="322460d566"><path d="M 0.144531 0.792969 L 24.910156 0.792969 L 24.910156 22.433594 L 0.144531 22.433594 Z M 0.144531 0.792969 " clip-rule="nonzero"/></clipPath><clipPath id="728caa4659"><path d="M 12.511719 0.792969 L 24.875 22.433594 L 0.144531 22.433594 Z M 12.511719 0.792969 " clip-rule="nonzero"/></clipPath><clipPath id="20dae55fab"><rect x="0" width="25" y="0" height="23"/></clipPath><clipPath id="039f05bd66"><path d="M 305.058594 364.792969 L 329.824219 364.792969 L 329.824219 386.433594 L 305.058594 386.433594 Z M 305.058594 364.792969 " clip-rule="nonzero"/></clipPath><clipPath id="3b0fc51d66"><path d="M 317.421875 364.792969 L 329.789062 386.433594 L 305.058594 386.433594 Z M 317.421875 364.792969 " clip-rule="nonzero"/></clipPath><clipPath id="d7162a5ba9"><path d="M 0.0585938 0.792969 L 24.824219 0.792969 L 24.824219 22.433594 L 0.0585938 22.433594 Z M 0.0585938 0.792969 " clip-rule="nonzero"/></clipPath><clipPath id="c5e1d122c6"><path d="M 12.421875 0.792969 L 24.789062 22.433594 L 0.0585938 22.433594 Z M 12.421875 0.792969 " clip-rule="nonzero"/></clipPath><clipPath id="37f3bced85"><rect x="0" width="25" y="0" height="23"/></clipPath><clipPath id="cdcc44d498"><rect x="0" width="501" y="0" height="429"/></clipPath></defs><g transform="matrix(1, 0, 0, 1, 61, 126)"><g clip-path="url(#cdcc44d498)"><path fill="#03a678" d="M 228.015625 231.085938 C 229.089844 246.652344 228.121094 261.25 221.894531 275.203125 C 218.675781 282.394531 213.203125 287.976562 205.257812 287.867188 C 199.464844 287.867188 193.238281 285.828125 187.976562 283.144531 C 155.347656 266.828125 130.984375 227.332031 135.921875 186.648438 C 138.925781 162.070312 148.90625 140.386719 164.6875 121.710938 C 177.886719 106.039062 192.378906 91.550781 206.332031 76.628906 C 215.242188 67.078125 223.613281 57.417969 228.230469 44.964844 C 233.488281 31.121094 233.597656 17.488281 228.121094 3.75 C 227.90625 3.105469 227.691406 2.460938 227.371094 0.851562 C 230.804688 3.320312 233.597656 5.144531 236.171875 7.078125 C 252.808594 19.847656 263.007812 36.699219 266.117188 57.523438 C 267.40625 65.898438 267.835938 74.484375 268.585938 83.070312 C 269.339844 91.550781 269.015625 100.351562 272.882812 108.292969 C 274.277344 111.191406 275.992188 113.875 277.925781 116.238281 C 281.46875 120.421875 285.652344 120.316406 288.121094 115.484375 C 290.589844 110.871094 291.988281 105.824219 293.597656 100.78125 C 294.671875 97.453125 295.316406 94.019531 296.601562 90.582031 C 302.183594 108.832031 313.882812 123.535156 323.4375 139.316406 C 337.496094 162.390625 344.046875 187.402344 339 214.019531 C 332.453125 248.367188 312.382812 273.164062 279.535156 286.363281 C 268.265625 290.875 257.425781 286.578125 252.164062 272.089844 C 247.441406 259.101562 246.371094 245.683594 247.550781 231.195312 C 265.691406 239.246094 283.828125 244.183594 304.117188 237.742188 C 289.839844 229.15625 277.925781 219.171875 268.160156 205.433594 C 278.035156 207.796875 287.15625 209.082031 297.355469 206.183594 C 282.003906 196.523438 270.628906 184.179688 261.179688 168.511719 C 269.554688 171.621094 277.175781 172.804688 285.332031 170.980469 C 272.128906 160.136719 260.753906 148.117188 252.917969 132.335938 C 258.285156 133.089844 263.113281 133.839844 268.910156 134.699219 C 251.949219 121.066406 244.757812 103.035156 237.675781 83.390625 C 231.664062 103.140625 223.722656 120.636719 209.125 134.699219 C 213.738281 133.519531 218.355469 132.445312 223.613281 131.050781 C 215.457031 147.257812 203.863281 159.601562 190.125 170.980469 C 198.28125 173.019531 205.902344 171.40625 214.492188 168.832031 C 204.828125 184.179688 193.558594 196.203125 178.53125 205.96875 C 188.300781 209.511719 197.316406 207.367188 207.085938 205.863281 C 197.210938 219.171875 185.507812 229.261719 171.125 237.847656 C 191.414062 244.074219 209.554688 239.03125 227.90625 231.300781 Z M 228.015625 231.085938 " fill-opacity="1" fill-rule="nonzero"/><path fill="#03a678" d="M 10.445312 326.078125 L 1.855469 326.078125 L 1.855469 303.003906 L 41.035156 303.003906 L 41.035156 326.078125 L 32.449219 326.078125 L 32.449219 376.207031 L 10.445312 376.207031 Z M 10.445312 326.078125 " fill-opacity="1" fill-rule="nonzero"/><path fill="#03a678" d="M 98.890625 348.082031 C 98.890625 365.578125 86.117188 378.566406 69.265625 378.566406 C 52.414062 378.566406 39.640625 365.578125 39.640625 348.082031 C 39.640625 330.585938 52.414062 317.601562 69.265625 317.601562 C 86.117188 317.601562 98.890625 330.585938 98.890625 348.082031 Z M 61 348.082031 C 61 354.09375 64.648438 358.171875 69.265625 358.171875 C 73.878906 358.171875 77.527344 354.09375 77.527344 348.082031 C 77.527344 342.074219 73.878906 338.101562 69.265625 338.101562 C 64.648438 338.101562 61 342.289062 61 348.082031 Z M 61 348.082031 " fill-opacity="1" fill-rule="nonzero"/><path fill="#03a678" d="M 122.933594 376.207031 L 102.539062 376.207031 L 102.539062 319.960938 L 121.859375 319.960938 L 121.859375 332.628906 C 123.039062 328.65625 128.515625 318.996094 136.242188 318.996094 L 137.851562 318.996094 L 137.851562 343.253906 C 137.101562 342.929688 135.597656 342.714844 134.308594 342.714844 C 127.332031 342.714844 122.824219 346.902344 122.824219 349.910156 L 122.824219 376.207031 Z M 122.933594 376.207031 " fill-opacity="1" fill-rule="nonzero"/><path fill="#03a678" d="M 181.324219 375.992188 C 178.855469 377.386719 174.5625 377.707031 170.589844 377.707031 C 153.308594 377.707031 140.214844 367.1875 140.214844 347.976562 C 140.214844 328.761719 153.308594 318.242188 170.589844 318.242188 C 187.871094 318.242188 178.855469 318.671875 181.324219 319.960938 L 181.324219 341 L 180.785156 341 C 179.5 339.175781 176.171875 337.886719 171.878906 337.886719 C 167.585938 337.886719 161.464844 342.074219 161.464844 347.867188 C 161.464844 353.664062 166.082031 357.851562 171.878906 357.851562 C 177.675781 357.851562 179.5 356.5625 180.785156 354.738281 L 181.324219 354.738281 Z M 181.324219 375.992188 " fill-opacity="1" fill-rule="nonzero"/><path fill="#03a678" d="M 206.332031 376.207031 L 185.9375 376.207031 L 185.9375 299.78125 L 205.257812 299.78125 L 205.257812 330.371094 C 206.761719 326.832031 211.914062 319.101562 221.144531 319.101562 C 230.375 319.101562 238.320312 326.9375 238.320312 339.710938 L 238.320312 376.3125 L 217.925781 376.3125 L 217.925781 347.117188 C 217.925781 342.179688 215.886719 339.925781 212.234375 339.925781 C 208.585938 339.925781 206.117188 342.714844 206.117188 346.152344 L 206.117188 376.3125 Z M 206.332031 376.207031 " fill-opacity="1" fill-rule="nonzero"/><path fill="#03a678" d="M 281.359375 350.765625 L 274.277344 376.207031 L 256.566406 376.207031 L 239.605469 319.960938 L 260 319.960938 L 266.011719 347.011719 L 273.847656 319.960938 L 288.230469 319.960938 L 296.28125 347.011719 L 302.078125 319.960938 L 322.253906 319.960938 L 305.402344 376.207031 L 288.550781 376.207031 L 281.46875 350.765625 Z M 281.359375 350.765625 " fill-opacity="1" fill-rule="nonzero"/><path fill="#03a678" d="M 378.714844 348.082031 C 378.714844 365.578125 365.941406 378.566406 349.089844 378.566406 C 332.238281 378.566406 319.464844 365.578125 319.464844 348.082031 C 319.464844 330.585938 332.238281 317.601562 349.089844 317.601562 C 365.941406 317.601562 378.714844 330.585938 378.714844 348.082031 Z M 340.824219 348.082031 C 340.824219 354.09375 344.472656 358.171875 349.089844 358.171875 C 353.707031 358.171875 357.355469 354.09375 357.355469 348.082031 C 357.355469 342.074219 353.707031 338.101562 349.089844 338.101562 C 344.472656 338.101562 340.824219 342.289062 340.824219 348.082031 Z M 340.824219 348.082031 " fill-opacity="1" fill-rule="nonzero"/><path fill="#03a678" d="M 440.21875 348.082031 C 440.21875 365.578125 427.445312 378.566406 410.59375 378.566406 C 393.742188 378.566406 380.96875 365.578125 380.96875 348.082031 C 380.96875 330.585938 393.742188 317.601562 410.59375 317.601562 C 427.445312 317.601562 440.21875 330.585938 440.21875 348.082031 Z M 402.328125 348.082031 C 402.328125 354.09375 405.976562 358.171875 410.59375 358.171875 C 415.210938 358.171875 418.859375 354.09375 418.859375 348.082031 C 418.859375 342.074219 415.210938 338.101562 410.59375 338.101562 C 405.976562 338.101562 402.328125 342.289062 402.328125 348.082031 Z M 402.328125 348.082031 " fill-opacity="1" fill-rule="nonzero"/><path fill="#03a678" d="M 480.363281 366.546875 C 477.035156 373.738281 471.347656 378.03125 463.726562 378.03125 C 451.8125 378.03125 442.578125 366.117188 442.578125 348.511719 C 442.578125 330.910156 451.8125 318.03125 463.726562 318.03125 C 475.640625 318.03125 475.640625 321.894531 478.96875 328.117188 L 478.96875 299.675781 L 499.359375 299.675781 L 499.359375 376.097656 L 480.363281 376.097656 L 480.363281 366.4375 Z M 471.667969 338.207031 C 467.480469 338.207031 463.832031 342.179688 463.832031 348.082031 C 463.832031 353.988281 467.375 357.957031 471.667969 357.957031 C 475.960938 357.957031 479.71875 353.664062 479.71875 348.082031 C 479.71875 342.503906 475.960938 338.207031 471.667969 338.207031 Z M 471.667969 338.207031 " fill-opacity="1" fill-rule="nonzero"/><g clip-path="url(#0afe71c74c)"><path fill="#03a678" d="M 129.800781 396.277344 C 127.871094 394.773438 125.292969 394.238281 122.71875 394.238281 C 117.566406 394.238281 113.59375 398.316406 113.59375 403.683594 C 113.59375 409.050781 117.566406 413.34375 122.71875 413.34375 C 127.871094 413.34375 127.871094 412.808594 129.800781 411.304688 L 129.800781 426.867188 C 127.332031 428.15625 124.648438 428.476562 121.75 428.476562 C 108.335938 428.476562 99.320312 417.316406 99.320312 403.683594 C 99.320312 390.050781 108.441406 378.996094 121.75 378.996094 C 135.0625 378.996094 127.441406 379.425781 129.800781 380.714844 Z M 129.800781 396.277344 " fill-opacity="1" fill-rule="nonzero"/></g><g clip-path="url(#3804c66e18)"><path fill="#03a678" d="M 274.0625 377.921875 L 287.265625 377.921875 L 287.265625 427.511719 L 274.0625 427.511719 Z M 274.0625 377.921875 " fill-opacity="1" fill-rule="nonzero"/></g><g clip-path="url(#05c3680ea4)"><path fill="#03a678" d="M 324.9375 387.691406 L 311.738281 387.691406 L 311.738281 377.921875 L 324.9375 377.921875 Z M 324.9375 427.511719 L 311.738281 427.511719 L 311.738281 391.019531 L 324.9375 391.019531 Z M 324.9375 427.511719 " fill-opacity="1" fill-rule="nonzero"/></g><g clip-path="url(#e7b0c3b771)"><g clip-path="url(#6ed1da05e2)"><g transform="matrix(1, 0, 0, 1, 269, 364)"><g clip-path="url(#20dae55fab)"><g clip-path="url(#322460d566)"><g clip-path="url(#728caa4659)"><path fill="#014040" d="M 0.144531 0.792969 L 24.910156 0.792969 L 24.910156 22.433594 L 0.144531 22.433594 Z M 0.144531 0.792969 " fill-opacity="1" fill-rule="nonzero"/></g></g></g></g></g></g><g clip-path="url(#039f05bd66)"><g clip-path="url(#3b0fc51d66)"><g transform="matrix(1, 0, 0, 1, 305, 364)"><g clip-path="url(#37f3bced85)"><g clip-path="url(#d7162a5ba9)"><g clip-path="url(#c5e1d122c6)"><path fill="#014040" d="M 0.0585938 0.792969 L 24.824219 0.792969 L 24.824219 22.433594 L 0.0585938 22.433594 Z M 0.0585938 0.792969 " fill-opacity="1" fill-rule="nonzero"/></g></g></g></g></g></g></g></g></svg>